<svg xmlns="http://www.w3.org/2000/svg" xmlns:xlink="http://www.w3.org/1999/xlink" viewBox="0 0 655.39 551.54"><defs><style>.cls-1{fill:url(#未命名的渐变_32);}.cls-2{fill:url(#未命名的渐变_23);}.cls-3{fill:url(#未命名的渐变_134);}.cls-17,.cls-4,.cls-8,.cls-9{opacity:0.8;isolation:isolate;}.cls-4{fill:url(#未命名的渐变_141);}.cls-5{fill:url(#未命名的渐变_140);}.cls-6{fill:url(#未命名的渐变_140-2);}.cls-7{fill:url(#未命名的渐变_69);}.cls-8{fill:url(#未命名的渐变_143);}.cls-9{fill:url(#未命名的渐变_70);}.cls-10{fill:url(#未命名的渐变_208);}.cls-11,.cls-12,.cls-13,.cls-14,.cls-40,.cls-41{fill-rule:evenodd;}.cls-11{fill:url(#未命名的渐变_42);}.cls-12{fill:url(#未命名的渐变_23-2);}.cls-13{fill:url(#未命名的渐变_40);}.cls-14{fill:url(#未命名的渐变_26);}.cls-15{opacity:0.5;}.cls-16{fill:url(#未命名的渐变_142);}.cls-17{fill:url(#未命名的渐变_71);}.cls-18{fill:url(#未命名的渐变_182);}.cls-19{opacity:0.39;fill:url(#未命名的渐变_89);}.cls-20{fill:url(#未命名的渐变_183);}.cls-21{opacity:0.75;fill:url(#未命名的渐变_181);}.cls-22{fill:url(#未命名的渐变_176);}.cls-23{fill:url(#未命名的渐变_93);}.cls-24{fill:url(#未命名的渐变_166);}.cls-25{fill:url(#未命名的渐变_118);}.cls-26{opacity:0.58;fill:url(#未命名的渐变_122);}.cls-27{opacity:0.7;fill:url(#未命名的渐变_126);}.cls-28{opacity:0.43;fill:url(#未命名的渐变_132);}.cls-29{fill:url(#未命名的渐变_208-2);}.cls-30{fill:url(#未命名的渐变_186);}.cls-31{fill:url(#未命名的渐变_229);}.cls-32{fill:url(#未命名的渐变_208-3);}.cls-33{fill:url(#未命名的渐变_186-2);}.cls-34{fill:url(#未命名的渐变_229-2);}.cls-35{fill:url(#铃琨眄_沭噤桢眚_178);}.cls-36{fill:url(#铃琨眄_沭噤桢眚_178-2);}.cls-37{fill:#ffffe1;}.cls-38{opacity:0.47;}.cls-39{opacity:0.44;}.cls-40{fill:url(#未命名的渐变_21);}.cls-41{fill:url(#未命名的渐变_133);}</style><linearGradient id="未命名的渐变_32" x1="413.25" y1="98.78" x2="528.67" y2="98.78" gradientTransform="matrix(0.11, 0.99, -0.99, 0.11, 416.49, -391.9)" gradientUnits="userSpaceOnUse"><stop offset="0" stop-color="#dde3fb"/><stop offset="0.03" stop-color="#dbe3fb"/><stop offset="0.32" stop-color="#cae1f9"/><stop offset="0.62" stop-color="#bfe0f8"/><stop offset="1" stop-color="#bce0f8"/></linearGradient><linearGradient id="未命名的渐变_23" x1="497.61" y1="372.78" x2="694.62" y2="372.78" gradientTransform="matrix(0, 0.98, -0.88, 0, 695.64, -470.38)" gradientUnits="userSpaceOnUse"><stop offset="0.01" stop-color="#e6f4ff"/><stop offset="0.46" stop-color="#d4f4ff"/><stop offset="0.99" stop-color="#c2f4ff"/></linearGradient><linearGradient id="未命名的渐变_134" x1="68.27" y1="2343.44" x2="183.69" y2="2343.44" gradientTransform="matrix(0.05, 0.72, -0.43, 0.08, 1362.04, -167.38)" gradientUnits="userSpaceOnUse"><stop offset="0" stop-color="#2be2a5"/><stop offset="1" stop-color="#3badea"/><stop offset="1" stop-color="#2499ce"/></linearGradient><linearGradient id="未命名的渐变_141" x1="181.78" y1="488.23" x2="302.83" y2="47.17" gradientTransform="translate(71.65 40.84) rotate(-3.31)" gradientUnits="userSpaceOnUse"><stop offset="0" stop-color="#4c83ff" stop-opacity="0"/><stop offset="0.2" stop-color="#4b88fe" stop-opacity="0.02"/><stop offset="0.4" stop-color="#4796fa" stop-opacity="0.06"/><stop offset="0.6" stop-color="#40aef3" stop-opacity="0.15"/><stop offset="0.8" stop-color="#36d0ea" stop-opacity="0.26"/><stop offset="1" stop-color="#2afadf" stop-opacity="0.4"/></linearGradient><linearGradient id="未命名的渐变_140" x1="572.16" y1="-294.02" x2="575.08" y2="-304.69" gradientTransform="matrix(0, 1.47, -1.33, 0, -99.35, -748.7)" gradientUnits="userSpaceOnUse"><stop offset="0" stop-color="#4c83ff" stop-opacity="0"/><stop offset="1" stop-color="#2afadf" stop-opacity="0.4"/></linearGradient><linearGradient id="未命名的渐变_140-2" x1="-124.7" y1="580.28" x2="-121.23" y2="567.63" gradientTransform="translate(554.59 -268.21) scale(0.88 0.71)" xlink:href="#未命名的渐变_140"/><linearGradient id="未命名的渐变_69" x1="326.63" y1="540.98" x2="328.9" y2="388.45" gradientUnits="userSpaceOnUse"><stop offset="0" stop-color="#00afd8" stop-opacity="0.1"/><stop offset="0.99" stop-color="#0fcfdd" stop-opacity="0.2"/></linearGradient><linearGradient id="未命名的渐变_143" x1="485.88" y1="36.88" x2="485.88" y2="-1.11" gradientUnits="userSpaceOnUse"><stop offset="0" stop-color="#8ab4ff" stop-opacity="0.1"/><stop offset="1" stop-color="#76ffff" stop-opacity="0.6"/></linearGradient><linearGradient id="未命名的渐变_70" x1="563.74" y1="238.68" x2="563.74" y2="192.81" gradientTransform="translate(9.97 20.92) rotate(-0.37)" gradientUnits="userSpaceOnUse"><stop offset="0" stop-color="#4c83ff" stop-opacity="0.1"/><stop offset="1" stop-color="#8affeb"/></linearGradient><linearGradient id="未命名的渐变_208" x1="764.81" y1="412.29" x2="583.63" y2="390.5" gradientTransform="translate(-66.1 -194.12) rotate(26.86)" gradientUnits="userSpaceOnUse"><stop offset="0" stop-color="#035072" stop-opacity="0.2"/><stop offset="0.3" stop-color="#0c4363" stop-opacity="0.29"/><stop offset="0.99" stop-color="#173451" stop-opacity="0.4"/></linearGradient><linearGradient id="未命名的渐变_42" x1="178.19" y1="-702.1" x2="195.01" y2="-722.62" gradientTransform="translate(18.31 771.27) rotate(-1.49)" gradientUnits="userSpaceOnUse"><stop offset="0" stop-color="#c3d2f4"/><stop offset="0.05" stop-color="#c2d2f3"/><stop offset="1" stop-color="#b5d7ea"/></linearGradient><linearGradient id="未命名的渐变_23-2" x1="171.72" y1="-718.63" x2="205.69" y2="-718.63" gradientTransform="translate(18.31 771.27) rotate(-1.49)" xlink:href="#未命名的渐变_23"/><linearGradient id="未命名的渐变_40" x1="138.27" y1="-13.01" x2="155.37" y2="-31.44" gradientTransform="translate(41.95 81.9) rotate(-1.49)" gradientUnits="userSpaceOnUse"><stop offset="0.01" stop-color="#d4eeff"/><stop offset="0.22" stop-color="#cae7f4"/><stop offset="0.61" stop-color="#bcdde2"/></linearGradient><linearGradient id="未命名的渐变_26" x1="183.34" y1="-713.03" x2="205.69" y2="-713.03" gradientTransform="translate(18.31 771.27) rotate(-1.49)" gradientUnits="userSpaceOnUse"><stop offset="0.01" stop-color="#e6f4ff"/><stop offset="0.82" stop-color="#d2f9ff"/></linearGradient><linearGradient id="未命名的渐变_142" x1="129.82" y1="99.65" x2="178.55" y2="100.18" gradientUnits="userSpaceOnUse"><stop offset="0" stop-color="#d6e9f4"/><stop offset="0.01" stop-color="#00b4e2"/><stop offset="0.26" stop-color="#04b3e3"/><stop offset="0.49" stop-color="#0eb2e8"/><stop offset="0.7" stop-color="#21afef"/><stop offset="0.91" stop-color="#3aabf9"/><stop offset="1" stop-color="#48a9ff"/></linearGradient><linearGradient id="未命名的渐变_71" x1="104.26" y1="164.44" x2="104.26" y2="102.06" gradientUnits="userSpaceOnUse"><stop offset="0" stop-color="#8ab4ff" stop-opacity="0.1"/><stop offset="1" stop-color="#76ffff"/></linearGradient><linearGradient id="未命名的渐变_182" x1="382.5" y1="457.16" x2="246.57" y2="265.16" gradientUnits="userSpaceOnUse"><stop offset="0.03" stop-color="#0041aa"/><stop offset="0.26" stop-color="#1e68f9"/><stop offset="1" stop-color="#ff426b"/></linearGradient><linearGradient id="未命名的渐变_89" x1="288.54" y1="380.21" x2="329.57" y2="430.7" gradientUnits="userSpaceOnUse"><stop offset="0" stop-color="#a22fba"/><stop offset="0.14" stop-color="#9433bc"/><stop offset="0.41" stop-color="#713cc2"/><stop offset="0.78" stop-color="#374ccb"/><stop offset="1" stop-color="#1156d1"/></linearGradient><linearGradient id="未命名的渐变_183" x1="287.34" y1="379.48" x2="331.21" y2="433.46" gradientUnits="userSpaceOnUse"><stop offset="0" stop-color="#ad509f"/><stop offset="0.95" stop-color="#1e68f9"/></linearGradient><linearGradient id="未命名的渐变_181" x1="-824.13" y1="-790.28" x2="-810.06" y2="-764.53" gradientTransform="translate(1075.45 1463.47) scale(0.87 1.5)" gradientUnits="userSpaceOnUse"><stop offset="0" stop-color="#b54f9a"/><stop offset="0.72" stop-color="#6d33c1"/><stop offset="0.99" stop-color="#5128d1"/></linearGradient><linearGradient id="未命名的渐变_176" x1="-817.95" y1="-786.24" x2="-817.44" y2="-761.18" gradientTransform="translate(1075.47 1463.4) scale(0.87 1.5)" gradientUnits="userSpaceOnUse"><stop offset="0.03" stop-color="#b24f9c"/><stop offset="0.54" stop-color="#7f46d6"/><stop offset="0.94" stop-color="#5c40ff"/></linearGradient><linearGradient id="未命名的渐变_93" x1="-677.07" y1="-506.92" x2="-647.48" y2="-470.51" gradientTransform="translate(910.78 947.96) scale(0.93 1.23)" gradientUnits="userSpaceOnUse"><stop offset="0" stop-color="#ad509f"/><stop offset="1" stop-color="#6c5bc7"/></linearGradient><linearGradient id="未命名的渐变_166" x1="-863.24" y1="-505.87" x2="-837.53" y2="-474.23" gradientTransform="translate(994.19 957.11) scale(0.82 1.23)" gradientUnits="userSpaceOnUse"><stop offset="0" stop-color="#a152a6"/><stop offset="1" stop-color="#4062e3"/></linearGradient><linearGradient id="未命名的渐变_118" x1="-132.58" y1="86.1" x2="-111.12" y2="112.5" gradientTransform="translate(414.32 195.55)" gradientUnits="userSpaceOnUse"><stop offset="0" stop-color="#d04a89"/><stop offset="1" stop-color="#8a56b5"/></linearGradient><linearGradient id="未命名的渐变_122" x1="-91.45" y1="135.44" x2="-109.97" y2="106.79" gradientTransform="translate(396.2 177.04) scale(1.02 0.98)" gradientUnits="userSpaceOnUse"><stop offset="0.03" stop-color="#1e68f9"/><stop offset="0.99" stop-color="#ff426b"/></linearGradient><linearGradient id="未命名的渐变_126" x1="538.56" y1="27.92" x2="562.76" y2="57.69" gradientTransform="matrix(0, 0.96, -1.31, 0, 302.23, -167.36)" gradientUnits="userSpaceOnUse"><stop offset="0" stop-color="#d64386"/><stop offset="1" stop-color="#4d61a4"/></linearGradient><linearGradient id="未命名的渐变_132" x1="544.34" y1="48.44" x2="578.04" y2="89.91" gradientTransform="matrix(0, 0.99, -1.29, 0, 325.39, -185.65)" gradientUnits="userSpaceOnUse"><stop offset="0" stop-color="#bc4687"/><stop offset="0.93" stop-color="#1935bf"/></linearGradient><linearGradient id="未命名的渐变_208-2" x1="-19.56" y1="445.65" x2="63.62" y2="445.65" gradientTransform="translate(39.29 23.35) rotate(-9.19)" xlink:href="#未命名的渐变_208"/><linearGradient id="未命名的渐变_186" x1="31.92" y1="378.17" x2="213.85" y2="360.21" gradientUnits="userSpaceOnUse"><stop offset="0" stop-color="#8dffc8"/><stop offset="0.2" stop-color="#67e7d2"/><stop offset="0.38" stop-color="#4bd6d9"/><stop offset="0.48" stop-color="#41cfdc"/><stop offset="0.59" stop-color="#3fabe2"/><stop offset="0.69" stop-color="#3e8ee6"/><stop offset="0.75" stop-color="#3d83e8"/><stop offset="1" stop-color="#3badea"/></linearGradient><linearGradient id="未命名的渐变_229" x1="58.01" y1="368.69" x2="197.9" y2="368.69" gradientUnits="userSpaceOnUse"><stop offset="0" stop-color="#4affc7"/><stop offset="1" stop-color="#3badea"/></linearGradient><linearGradient id="未命名的渐变_208-3" x1="767.82" y1="440.2" x2="694.52" y2="440.2" gradientTransform="translate(-41.89 -158.53) rotate(15.48)" xlink:href="#未命名的渐变_208"/><linearGradient id="未命名的渐变_186-2" x1="426.3" y1="368.71" x2="566.19" y2="368.71" xlink:href="#未命名的渐变_186"/><linearGradient id="未命名的渐变_229-2" x1="435.27" y1="368.59" x2="575.16" y2="368.59" xlink:href="#未命名的渐变_229"/><linearGradient id="铃琨眄_沭噤桢眚_178" x1="584.72" y1="499.13" x2="584.27" y2="456.49" gradientUnits="userSpaceOnUse"><stop offset="0" stop-color="#3badea"/><stop offset="1" stop-color="#4affc7"/></linearGradient><linearGradient id="铃琨眄_沭噤桢眚_178-2" x1="88.1" y1="496.04" x2="87.54" y2="442.61" xlink:href="#铃琨眄_沭噤桢眚_178"/><linearGradient id="未命名的渐变_21" x1="-589.53" y1="18.13" x2="-592.63" y2="17.02" gradientTransform="matrix(87.85, -28.5, -17.37, -53.54, 52558.31, -15538.74)" gradientUnits="userSpaceOnUse"><stop offset="0" stop-color="#b3ffed"/><stop offset="0.07" stop-color="#b8e8f5"/><stop offset="0.15" stop-color="#bbd7fa"/><stop offset="0.23" stop-color="#bdccfe"/><stop offset="0.33" stop-color="#bec9ff"/><stop offset="0.4" stop-color="#b5bffb"/><stop offset="0.53" stop-color="#9ca3f0"/><stop offset="0.7" stop-color="#7475de"/><stop offset="0.9" stop-color="#3c37c5"/><stop offset="0.98" stop-color="#241cba"/></linearGradient><linearGradient id="未命名的渐变_133" x1="-590.56" y1="18.21" x2="-592.84" y2="15.19" gradientTransform="matrix(87.45, -28.37, -17.33, -53.42, 52316.36, -15465.41)" gradientUnits="userSpaceOnUse"><stop offset="0" stop-color="#d4ffdd"/><stop offset="0.07" stop-color="#cbe8ec"/><stop offset="0.15" stop-color="#c4d7f6"/><stop offset="0.23" stop-color="#bfccfd"/><stop offset="0.33" stop-color="#bec9ff"/><stop offset="0.4" stop-color="#b5bffb"/><stop offset="0.53" stop-color="#9ca3f0"/><stop offset="0.7" stop-color="#7475de"/><stop offset="0.9" stop-color="#3c37c5"/><stop offset="0.98" stop-color="#241cba"/></linearGradient></defs><title>404</title><g id="图层_2" data-name="图层 2"><g id="图层_1-2" data-name="图层 1"><ellipse class="cls-1" cx="372.5" cy="87.29" rx="44.85" ry="57.86" transform="translate(225.77 440.63) rotate(-80.64)"/><ellipse class="cls-2" cx="369.28" cy="112.15" rx="46.33" ry="96.26" transform="translate(210.57 463.93) rotate(-82.61)"/><ellipse class="cls-3" cx="369.69" cy="116.61" rx="19.24" ry="41.65" transform="translate(206.5 468.23) rotate(-82.61)"/><path class="cls-4" d="M331.45,104.74,128,519l307.31-5.18L411,117.66s-7.74-15.33-38.85-20.13S331.45,104.74,331.45,104.74Z"/><ellipse class="cls-5" cx="299.32" cy="93.57" rx="7.33" ry="10.18" transform="translate(168.04 378.37) rotate(-82.61)"/><ellipse class="cls-6" cx="446.35" cy="138.93" rx="7.22" ry="4.61" transform="translate(-21.12 137.44) rotate(-17.11)"/><path class="cls-7" d="M0,469.13c0,45.51,146.71,82.41,327.7,82.41s327.69-36.9,327.69-82.41S508.68,386.74,327.7,386.74,0,423.63,0,469.13"/><path class="cls-8" d="M503.75,16.89h-2c0-.38.06-.75.06-1.13a15.76,15.76,0,1,0-31.52,0c0,.38,0,.75.06,1.13H468A10.55,10.55,0,0,0,468,38h35.74a10.55,10.55,0,0,0,0-21.1Z"/><path class="cls-9" d="M596.66,231.65l-2.45,0c0-.45.06-.9.06-1.36a19,19,0,1,0-38,.24c0,.46,0,.91.07,1.36l-2.78,0a12.74,12.74,0,1,0,.16,25.48l43.15-.28a12.74,12.74,0,1,0-.16-25.48Z"/><path class="cls-10" d="M391.74,496.28c-37.17,12-80.7,11.88-106.58.23-26.23-11.8-55.89-34.43-47.06-51.86s89.85-51,146.35-30.07C432.45,432.34,418.9,487.49,391.74,496.28Z"/><g id="形状_985" data-name="形状 985"><polygon class="cls-11" points="179.85 50.21 179.14 65.76 205.08 42.44 179.85 50.21"/></g><g id="形状_983" data-name="形状 983"><polygon class="cls-12" points="171.17 45.56 179.71 53.27 205.08 42.44 171.17 45.56"/></g><polygon class="cls-13" points="183.07 55.8 179.14 65.76 205.08 42.44 183.07 55.8"/><g id="形状_984" data-name="形状 984"><polygon class="cls-14" points="183.07 55.8 193.08 64.13 205.08 42.44 183.07 55.8"/></g><g class="cls-15"><path class="cls-16" d="M129.94,134.07a78,78,0,0,1,3.9-18.9,46.15,46.15,0,0,1,10.08-16.45c1.11-1.18,2.31-2.28,3.53-3.35a23.75,23.75,0,0,1,4.06-2.75,24.42,24.42,0,0,1,9.32-2.92,15.79,15.79,0,0,1,4.94.27,10,10,0,0,1,4.49,2.23,8.29,8.29,0,0,1,2.41,4.44,10.33,10.33,0,0,1-.35,5,13.89,13.89,0,0,1-6.1,7.66,9.21,9.21,0,0,1-9.64.06,10.89,10.89,0,0,1-3.53-3.52,14.25,14.25,0,0,1-1.88-4.57,19.86,19.86,0,0,1,.27-9.75,34.76,34.76,0,0,1,4-8.88,32,32,0,0,1,6.23-7.43c4.91-4.28,10.82-7.11,16.79-9.45-5.91,2.49-11.73,5.48-16.46,9.81A31.46,31.46,0,0,0,156,83a34,34,0,0,0-3.77,8.75,19.76,19.76,0,0,0-.17,9.36,11.69,11.69,0,0,0,5,7.51,8.11,8.11,0,0,0,1,.53l1.08.39a8.61,8.61,0,0,0,2.26.25,8.39,8.39,0,0,0,4.33-1.27,13,13,0,0,0,5.64-7.14,9.4,9.4,0,0,0,.34-4.52,7.32,7.32,0,0,0-2.1-3.92c-2.27-2.05-5.61-2.57-8.7-2.29a23.26,23.26,0,0,0-9,2.77A24.05,24.05,0,0,0,148,96c-1.22,1-2.41,2.1-3.52,3.24a45.76,45.76,0,0,0-10.17,16.09A77.44,77.44,0,0,0,129.94,134.07Z"/></g><path class="cls-17" d="M133.6,131.6h-3.32c0-.61.09-1.22.09-1.85a25.88,25.88,0,0,0-51.76,0c0,.63,0,1.24.1,1.85H74.92a17.33,17.33,0,0,0,0,34.66H133.6a17.33,17.33,0,1,0,0-34.66Z"/><path class="cls-18" d="M218.56,361.62a96.3,96.3,0,1,0,96.3-96.3,96.29,96.29,0,0,0-96.3,96.3"/><circle class="cls-19" cx="316.59" cy="414.72" r="20.29"/><circle class="cls-20" cx="315.86" cy="414.58" r="17.76"/><ellipse class="cls-21" cx="361.89" cy="298.92" rx="6.56" ry="9.05" transform="translate(-99.93 382.81) rotate(-49.85)"/><ellipse class="cls-22" cx="361.98" cy="298.9" rx="5.13" ry="7.07" transform="translate(-99.89 382.87) rotate(-49.85)"/><ellipse class="cls-23" cx="296.6" cy="349.9" rx="12.09" ry="12.85" transform="translate(-155.15 270.4) rotate(-39.73)"/><ellipse class="cls-24" cx="296.23" cy="348.95" rx="9.25" ry="11.23" transform="translate(-154.63 269.94) rotate(-39.73)"/><ellipse class="cls-25" cx="293.7" cy="296.35" rx="13.36" ry="10.31" transform="translate(-72.64 96.65) rotate(-16.66)"/><ellipse class="cls-26" cx="293.38" cy="296.74" rx="11.17" ry="8.28" transform="translate(-72.76 96.57) rotate(-16.66)"/><ellipse class="cls-27" cx="244.9" cy="364.49" rx="15.39" ry="14.67" transform="translate(-163.23 526.55) rotate(-77.76)"/><ellipse class="cls-28" cx="244.72" cy="363.35" rx="12.83" ry="12.72" transform="translate(-162.26 525.47) rotate(-77.76)"/><path class="cls-29" d="M177.6,452.42c1.13,7-15.94,15-36.85,18.42s-37.84,6.18-39-.81,7-18.92,27.88-22.3S176.47,445.43,177.6,452.42Z"/><path class="cls-30" d="M128.19,453.73v-39.4H49V387.24l67.45-108.78h51.12V383.09h21.32v31.24H167.61l-30.45,44.81Zm0-70.64V343.62c0-10.73.57-21.78,1.19-33.28l-1,0c-5.71,11.65-10.51,22-16.56,33.13L88,382.54l-.16.55Z"/><path class="cls-31" d="M97,382.31l23.79-39.11c6-11.16,10.86-21.48,16.57-33.13l1,0c-.62,11.5-1.19,22.55-1.19,33.28v39.47H96.83Zm28.47-104.08L58,387V414.1h79.15v45l39.42-2.38V414.1H197.9V382.86H176.58V278.23Z"/><path class="cls-32" d="M571.64,468.13c-1.56,5.66-18.12,5.56-36.11.58s-32.57-9-31-14.63,12.3-11.72,30.29-6.73S573.21,462.47,571.64,468.13Z"/><path class="cls-33" d="M505.45,454.2V414.33H426.3V387.24l67.45-108.78h51.13V383.09h21.31v31.24H544.88L514.42,459Zm0-71.11V343.62c0-10.73.57-21.78,1.19-33.28l-1,0c-5.71,11.65-10.52,22-16.56,33.13l-23.8,39.11-.16.55Z"/><path class="cls-34" d="M474.25,382.31,498,343.2c6-11.16,10.86-21.48,16.57-33.13l1,0c-.62,11.5-1.19,22.55-1.19,33.28v39.47H474.09Zm28.48-104.08L435.27,387V414.1h79.15V459l39.43-2.2V414.1h21.31V382.86H553.85V278.23Z"/><path class="cls-35" d="M595.7,477.23c-2.63-9.13-6.56-19.11-11.18-19.11s-8.55,10-11.18,19.11a11.6,11.6,0,0,0,9.24,14.63v12.81h3.88V491.86a11.6,11.6,0,0,0,9.24-14.63"/><path class="cls-36" d="M101.86,468.59c-3.29-11.44-8.21-23.94-14-23.94s-10.72,12.5-14,23.94a14.55,14.55,0,0,0,11.58,18.34V503h4.86V486.93a14.55,14.55,0,0,0,11.57-18.34"/><path class="cls-37" d="M338,317.86a.56.56,0,0,0,0-1.12.56.56,0,0,0,0,1.12Z"/><path class="cls-37" d="M274.44,299.55a.56.56,0,0,0,0-1.11.56.56,0,0,0,0,1.11Z"/><path class="cls-37" d="M295.15,398a.56.56,0,0,0,0-1.12.56.56,0,0,0,0,1.12Z"/><path class="cls-37" d="M279.14,327a.56.56,0,0,0,0-1.12.56.56,0,0,0,0,1.12Z"/><path class="cls-37" d="M384.26,410.29a.56.56,0,0,0,0-1.11.56.56,0,0,0,0,1.11Z"/><path class="cls-37" d="M394.73,125.84a.56.56,0,0,0,0-1.12.56.56,0,0,0,0,1.12Z"/><path class="cls-37" d="M296.87,95.29a.56.56,0,0,0,0-1.12.56.56,0,0,0,0,1.12Z"/><path class="cls-37" d="M283.83,212.43a.56.56,0,0,0,0-1.12.56.56,0,0,0,0,1.12Z"/><path class="cls-37" d="M144,232.13a.56.56,0,0,0,0-1.12.56.56,0,0,0,0,1.12Z"/><path class="cls-37" d="M369.89,192.42a.56.56,0,0,0,0-1.11.56.56,0,0,0,0,1.11Z"/><path class="cls-37" d="M372.43,116.72a.56.56,0,0,0,0-1.12.56.56,0,0,0,0,1.12Z"/><path class="cls-37" d="M428.17,188a.56.56,0,0,0,0-1.12.56.56,0,0,0,0,1.12Z"/><path class="cls-37" d="M509.63,225.78a.56.56,0,0,0,0-1.12.56.56,0,0,0,0,1.12Z"/><path class="cls-37" d="M544.21,446.44a.56.56,0,0,0,0-1.12.56.56,0,0,0,0,1.12Z"/><path class="cls-37" d="M87.86,235a.56.56,0,0,0,0-1.12.56.56,0,0,0,0,1.12Z"/><path class="cls-37" d="M205.08,175.66a.56.56,0,0,0,0-1.12.56.56,0,0,0,0,1.12Z"/><path class="cls-37" d="M344.56,217.05a.56.56,0,0,0,0-1.12.56.56,0,0,0,0,1.12Z"/><path class="cls-37" d="M246.6,386.43a1,1,0,0,0,0-1.9,1,1,0,0,0,0,1.9Z"/><g class="cls-38"><path class="cls-37" d="M270.65,274a1.18,1.18,0,0,0,0-2.35,1.18,1.18,0,0,0,0,2.35Z"/></g><path class="cls-37" d="M289.62,382.74a1.18,1.18,0,0,0,0-2.35,1.18,1.18,0,0,0,0,2.35Z"/><g class="cls-39"><path class="cls-37" d="M372.79,378.57a1.18,1.18,0,0,0,0-2.35,1.18,1.18,0,0,0,0,2.35Z"/></g><path class="cls-37" d="M378.93,130.09a1.18,1.18,0,0,0,0-2.35,1.18,1.18,0,0,0,0,2.35Z"/><path class="cls-37" d="M307.73,145.46a1.29,1.29,0,0,0,0-2.57,1.29,1.29,0,0,0,0,2.57Z"/><path class="cls-37" d="M419,256.14a1.57,1.57,0,0,0,0-3.13,1.57,1.57,0,0,0,0,3.13Z"/><path class="cls-37" d="M391.77,386.54a1.85,1.85,0,0,0,0-3.7,1.85,1.85,0,0,0,0,3.7Z"/><g class="cls-38"><path class="cls-37" d="M253.75,293.6c2.59,0,2.6-4,0-4s-2.6,4,0,4Z"/></g><g class="cls-38"><path class="cls-37" d="M279.05,159.36c2.6,0,2.6-4,0-4s-2.59,4,0,4Z"/></g><g class="cls-39"><path class="cls-37" d="M443.17,162.3c2.59,0,2.6-4,0-4s-2.6,4,0,4Z"/></g><path class="cls-37" d="M359.72,416.42a1.63,1.63,0,0,0,0-3.25,1.63,1.63,0,0,0,0,3.25Z"/><path class="cls-37" d="M214.87,336a.56.56,0,0,0,0-1.12.56.56,0,0,0,0,1.12Z"/><path class="cls-37" d="M151.27,317.7a.56.56,0,0,0,0-1.12.56.56,0,0,0,0,1.12Z"/><path class="cls-37" d="M31.63,410.86a.56.56,0,0,0,0-1.12.56.56,0,0,0,0,1.12Z"/><path class="cls-37" d="M156,345.18a.56.56,0,0,0,0-1.12.56.56,0,0,0,0,1.12Z"/><path class="cls-37" d="M485.56,491.09a.56.56,0,0,0,0-1.12.56.56,0,0,0,0,1.12Z"/><path class="cls-37" d="M199.27,508a.56.56,0,0,0,0-1.12.56.56,0,0,0,0,1.12Z"/><path class="cls-37" d="M525.86,265.88a.56.56,0,0,0,0-1.12.56.56,0,0,0,0,1.12Z"/><path class="cls-37" d="M528.66,406.19a.56.56,0,0,0,0-1.12.56.56,0,0,0,0,1.12Z"/><path class="cls-37" d="M528.66,296.91a.56.56,0,0,0,0-1.12.56.56,0,0,0,0,1.12Z"/><path class="cls-37" d="M177,498.85a.56.56,0,0,0,0-1.12.56.56,0,0,0,0,1.12Z"/><path class="cls-37" d="M373.71,533.36a.56.56,0,0,0,0-1.12.56.56,0,0,0,0,1.12Z"/><path class="cls-37" d="M589.39,410.8a.56.56,0,0,0,0-1.12.56.56,0,0,0,0,1.12Z"/><path class="cls-37" d="M443.17,387.69a1,1,0,0,0,0-1.9,1,1,0,0,0,0,1.9Z"/><g class="cls-38"><path class="cls-37" d="M87.86,452.28a1.18,1.18,0,0,0,0-2.35,1.18,1.18,0,0,0,0,2.35Z"/></g><path class="cls-37" d="M144,446.67a1.18,1.18,0,0,0,0-2.35,1.18,1.18,0,0,0,0,2.35Z"/><g class="cls-39"><path class="cls-37" d="M391.77,235.58a1.18,1.18,0,0,0,0-2.35,1.18,1.18,0,0,0,0,2.35Z"/></g><path class="cls-37" d="M73.28,378.68a1.29,1.29,0,0,0,0-2.57,1.29,1.29,0,0,0,0,2.57Z"/><path class="cls-37" d="M589.39,480.83a1.85,1.85,0,0,0,0-3.69,1.85,1.85,0,0,0,0,3.69Z"/><g class="cls-38"><path class="cls-37" d="M637.7,464.19c2.6,0,2.6-4,0-4s-2.59,4,0,4Z"/></g><path id="形状结合" class="cls-40" d="M240.8,423.38l7.84,8.16c-3.84,10.4-6.19,21.15-1.65,23.64,6.8,3.74,75.29-58.38,92.86-78s64.28-90.23,57.93-94.46c-3.85-3.3-10.39.16-19.1,6.81l-5.89-4.8c31.06-34,50.68-44.39,57.77-40.47,14.71,15.39-34.45,92.41-80.05,139S228.77,502.38,213,490.53C202.55,482.63,212.67,459.77,240.8,423.38Z"/><path id="形状结合-2" class="cls-41" d="M240,422.17l6.62,7.25c-5.14,11.73-5.5,19.36-1,21.85,6.78,3.75,69.11-53,91.3-77.86,21.8-24.46,53.16-68.76,59.56-85.8s-12.08-7.15-20.73-.51l-8.58-6.4c30.86-33.92,50.27-44.42,61.8-37.35,17.3,10.61-35.1,89.65-80.41,136.18S226.84,500.62,211.17,488.75C200.72,480.84,209.87,459.21,240,422.17Z"/></g></g></svg>