<svg xmlns="http://www.w3.org/2000/svg" xmlns:xlink="http://www.w3.org/1999/xlink" viewBox="0 0 655.39 500.97"><defs><style>.cls-1{fill:none;}.cls-2{fill:url(#未命名的渐变_208);}.cls-3{fill:url(#未命名的渐变_69);}.cls-33,.cls-4,.cls-43,.cls-5{opacity:0.8;}.cls-12,.cls-33,.cls-4,.cls-43,.cls-5{isolation:isolate;}.cls-4{fill:url(#未命名的渐变_143);}.cls-5{fill:url(#未命名的渐变_70);}.cls-6{fill:url(#未命名的渐变_208-2);}.cls-7{fill:url(#未命名的渐变_208-3);}.cls-8{fill:url(#未命名的渐变_208-4);}.cls-9{fill:url(#未命名的渐变_208-5);}.cls-10{opacity:0.5;}.cls-11{fill:url(#未命名的渐变_142);}.cls-13{clip-path:url(#clip-path);}.cls-14{fill:#6a6a6a;}.cls-15{fill:#666;}.cls-16{fill:url(#未命名的渐变_36);}.cls-17{fill:url(#未命名的渐变_32);}.cls-18{fill:#585858;}.cls-19{fill:url(#未命名的渐变_26);}.cls-20{fill:url(#未命名的渐变_23);}.cls-21{fill:url(#未命名的渐变_222);}.cls-22{fill:url(#未命名的渐变_36-2);}.cls-23{fill:url(#未命名的渐变_23-2);}.cls-24{fill:url(#未命名的渐变_32-2);}.cls-25{fill:url(#未命名的渐变_23-3);}.cls-26{fill:url(#未命名的渐变_23-4);}.cls-27{fill:url(#未命名的渐变_23-5);}.cls-28{fill:url(#未命名的渐变_182);}.cls-29{fill:url(#未命名的渐变_34);}.cls-30{fill:url(#未命名的渐变_32-3);}.cls-31{fill:url(#未命名的渐变_23-6);}.cls-32{fill:url(#未命名的渐变_32-4);}.cls-33{fill:url(#未命名的渐变_71);}.cls-34{fill:url(#铃琨眄_沭噤桢眚_178);}.cls-35{fill:url(#铃琨眄_沭噤桢眚_178-2);}.cls-36{fill:#ffffe1;}.cls-37{opacity:0.47;}.cls-38{opacity:0.44;}.cls-39{fill:url(#未命名的渐变_208-6);}.cls-40{fill:url(#未命名的渐变_47);}.cls-41{fill:url(#未命名的渐变_36-3);}.cls-42{fill:url(#未命名的渐变_36-4);}.cls-43{fill:url(#未命名的渐变_44);}.cls-44{fill:url(#未命名的渐变_23-7);}.cls-45{fill:url(#未命名的渐变_289);}.cls-46{fill:#8de5ed;}.cls-47{fill:url(#未命名的渐变_46);}.cls-48{fill:url(#未命名的渐变_23-8);}.cls-49{fill:url(#未命名的渐变_36-5);}.cls-50{fill:url(#未命名的渐变_23-9);}.cls-51{fill:url(#未命名的渐变_32-5);}.cls-52{fill:url(#未命名的渐变_14);}.cls-53{fill:url(#未命名的渐变_45);}.cls-54{fill:url(#未命名的渐变_182-2);}.cls-55{fill:url(#未命名的渐变_186);}.cls-56{fill:url(#未命名的渐变_229);}.cls-57{fill:url(#未命名的渐变_186-2);}.cls-58{fill:url(#未命名的渐变_229-2);}</style><linearGradient id="未命名的渐变_208" x1="295.9" y1="402.88" x2="426.46" y2="402.88" gradientUnits="userSpaceOnUse"><stop offset="0" stop-color="#035072" stop-opacity="0.2"/><stop offset="0.3" stop-color="#0c4363" stop-opacity="0.29"/><stop offset="0.99" stop-color="#173451" stop-opacity="0.4"/></linearGradient><linearGradient id="未命名的渐变_69" x1="326.63" y1="490.41" x2="328.9" y2="337.89" gradientUnits="userSpaceOnUse"><stop offset="0" stop-color="#00afd8" stop-opacity="0.1"/><stop offset="0.99" stop-color="#0fcfdd" stop-opacity="0.2"/></linearGradient><linearGradient id="未命名的渐变_143" x1="435.45" y1="46.63" x2="435.45" y2="8.64" gradientUnits="userSpaceOnUse"><stop offset="0" stop-color="#8ab4ff" stop-opacity="0.1"/><stop offset="1" stop-color="#76ffff" stop-opacity="0.6"/></linearGradient><linearGradient id="未命名的渐变_70" x1="541.66" y1="201.07" x2="541.66" y2="155.2" gradientTransform="translate(10.28 11.85) rotate(-0.37)" gradientUnits="userSpaceOnUse"><stop offset="0" stop-color="#4c83ff" stop-opacity="0.1"/><stop offset="1" stop-color="#8affeb"/></linearGradient><linearGradient id="未命名的渐变_208-2" x1="48.51" y1="686.83" x2="-39.72" y2="533.13" gradientTransform="translate(29.84 -200.49) rotate(-9.19)" xlink:href="#未命名的渐变_208"/><linearGradient id="未命名的渐变_208-3" x1="737.67" y1="39.93" x2="612.38" y2="11.89" gradientTransform="translate(-106.74 212.38) rotate(15.48)" xlink:href="#未命名的渐变_208"/><linearGradient id="未命名的渐变_208-4" x1="2770.94" y1="103.39" x2="2711.21" y2="103.39" gradientTransform="matrix(0.41, 0.15, -0.18, 0.51, -508.43, -5.09)" xlink:href="#未命名的渐变_208"/><linearGradient id="未命名的渐变_208-5" x1="-4547.14" y1="2238.51" x2="-4606.87" y2="2238.51" gradientTransform="matrix(0.41, 0.15, -0.18, 0.51, 2383.06, -5.09)" xlink:href="#未命名的渐变_208"/><linearGradient id="未命名的渐变_142" x1="107.81" y1="53.11" x2="156.55" y2="53.64" gradientUnits="userSpaceOnUse"><stop offset="0" stop-color="#d6e9f4"/><stop offset="0.01" stop-color="#00b4e2"/><stop offset="0.26" stop-color="#04b3e3"/><stop offset="0.49" stop-color="#0eb2e8"/><stop offset="0.7" stop-color="#21afef"/><stop offset="0.91" stop-color="#3aabf9"/><stop offset="1" stop-color="#48a9ff"/></linearGradient><clipPath id="clip-path"><path class="cls-1" d="M159.13,28.09l-.36.11,0,0,.35-.11Z"/></clipPath><linearGradient id="未命名的渐变_36" x1="251.57" y1="-1293.64" x2="256.89" y2="-1293.64" gradientTransform="matrix(0.42, 0.91, 0.91, -0.42, 1226.13, -753.11)" gradientUnits="userSpaceOnUse"><stop offset="0" stop-color="#bde1f9"/><stop offset="1" stop-color="#c1d3f4"/></linearGradient><linearGradient id="未命名的渐变_32" x1="262.38" y1="-1296.91" x2="262.38" y2="-1283.23" gradientTransform="matrix(0.42, 0.91, 0.91, -0.42, 1226.13, -753.11)" gradientUnits="userSpaceOnUse"><stop offset="0" stop-color="#dde3fb"/><stop offset="0.03" stop-color="#dbe3fb"/><stop offset="0.32" stop-color="#cae1f9"/><stop offset="0.62" stop-color="#bfe0f8"/><stop offset="1" stop-color="#bce0f8"/></linearGradient><linearGradient id="未命名的渐变_26" x1="264.6" y1="-1290.17" x2="258.4" y2="-1290.17" gradientTransform="matrix(0.42, 0.91, 0.91, -0.42, 1226.13, -753.11)" gradientUnits="userSpaceOnUse"><stop offset="0.01" stop-color="#e6f4ff"/><stop offset="0.82" stop-color="#d2f9ff"/></linearGradient><linearGradient id="未命名的渐变_23" x1="245.13" y1="178.17" x2="263.12" y2="178.17" gradientTransform="matrix(0.42, 0.91, -0.91, 0.42, 224.81, -293.25)" gradientUnits="userSpaceOnUse"><stop offset="0.01" stop-color="#e6f4ff"/><stop offset="0.46" stop-color="#d4f4ff"/><stop offset="0.99" stop-color="#c2f4ff"/></linearGradient><linearGradient id="未命名的渐变_222" x1="254.34" y1="-1259.41" x2="254.35" y2="-1259.41" gradientTransform="matrix(0.42, 0.91, 0.91, -0.42, 1226.13, -753.11)" gradientUnits="userSpaceOnUse"><stop offset="0" stop-color="#999"/><stop offset="0.65" stop-color="#c7c7c7"/><stop offset="1" stop-color="#afafaf"/></linearGradient><linearGradient id="未命名的渐变_36-2" x1="247.08" y1="-1264.04" x2="261.38" y2="-1264.04" xlink:href="#未命名的渐变_36"/><linearGradient id="未命名的渐变_23-2" x1="246.33" y1="-1297.08" x2="246.33" y2="-1283.5" gradientTransform="matrix(0.42, 0.91, 0.91, -0.42, 1226.13, -753.11)" xlink:href="#未命名的渐变_23"/><linearGradient id="未命名的渐变_32-2" x1="244.14" y1="-1287.36" x2="249.29" y2="-1293.5" xlink:href="#未命名的渐变_32"/><linearGradient id="未命名的渐变_23-3" x1="253.4" y1="-1286.41" x2="255.46" y2="-1286.1" gradientTransform="matrix(0.42, 0.91, 0.91, -0.42, 1226.13, -753.11)" xlink:href="#未命名的渐变_23"/><linearGradient id="未命名的渐变_23-4" x1="255.48" y1="-1297.42" x2="255.48" y2="-1288.43" gradientTransform="matrix(0.42, 0.91, 0.91, -0.42, 1226.13, -753.11)" xlink:href="#未命名的渐变_23"/><linearGradient id="未命名的渐变_23-5" x1="255.43" y1="-1288.45" x2="255.43" y2="-1288.19" gradientTransform="matrix(0.42, 0.91, 0.91, -0.42, 1226.13, -753.11)" xlink:href="#未命名的渐变_23"/><linearGradient id="未命名的渐变_182" x1="251.52" y1="-1271.29" x2="256.85" y2="-1277.64" gradientTransform="matrix(0.42, 0.91, 0.91, -0.42, 1226.13, -753.11)" gradientUnits="userSpaceOnUse"><stop offset="0.03" stop-color="#0041aa"/><stop offset="0.26" stop-color="#1e68f9"/><stop offset="1" stop-color="#ff426b"/></linearGradient><linearGradient id="未命名的渐变_34" x1="-109.92" y1="-1839.31" x2="-113.2" y2="-1846.76" gradientTransform="matrix(0.71, 0.7, 0.7, -0.71, 1544.02, -1227.11)" gradientUnits="userSpaceOnUse"><stop offset="0" stop-color="#85b7ff"/><stop offset="0.29" stop-color="#639ef4"/><stop offset="0.58" stop-color="#478aeb"/><stop offset="0.75" stop-color="#3d83e8"/><stop offset="1" stop-color="#c1236b"/></linearGradient><linearGradient id="未命名的渐变_32-3" x1="252.42" y1="172.61" x2="256.08" y2="172.61" gradientTransform="matrix(0.42, 0.91, -0.91, 0.42, 224.81, -293.25)" xlink:href="#未命名的渐变_32"/><linearGradient id="未命名的渐变_23-6" x1="252.27" y1="172.59" x2="255.93" y2="172.59" xlink:href="#未命名的渐变_23"/><linearGradient id="未命名的渐变_32-4" x1="254.12" y1="-1290.56" x2="255.11" y2="-1290.56" xlink:href="#未命名的渐变_32"/><linearGradient id="未命名的渐变_71" x1="82.26" y1="117.9" x2="82.26" y2="55.52" gradientUnits="userSpaceOnUse"><stop offset="0" stop-color="#8ab4ff" stop-opacity="0.1"/><stop offset="1" stop-color="#76ffff"/></linearGradient><linearGradient id="铃琨眄_沭噤桢眚_178" x1="591.29" y1="446.26" x2="590.94" y2="412.53" gradientUnits="userSpaceOnUse"><stop offset="0" stop-color="#3badea"/><stop offset="1" stop-color="#4affc7"/></linearGradient><linearGradient id="铃琨眄_沭噤桢眚_178-2" x1="68.76" y1="450.79" x2="68.3" y2="407.26" xlink:href="#铃琨眄_沭噤桢眚_178"/><linearGradient id="未命名的渐变_208-6" x1="628.68" y1="-270.74" x2="433.61" y2="-294.2" gradientTransform="translate(-240.85 431.39) rotate(26.86)" xlink:href="#未命名的渐变_208"/><linearGradient id="未命名的渐变_47" x1="286.61" y1="480.17" x2="235.43" y2="446.01" gradientUnits="userSpaceOnUse"><stop offset="0" stop-color="#035072" stop-opacity="0.2"/><stop offset="0.31" stop-color="#0c4363" stop-opacity="0.29"/><stop offset="1" stop-color="#173451" stop-opacity="0.4"/></linearGradient><linearGradient id="未命名的渐变_36-3" x1="233.8" y1="383.8" x2="326.68" y2="383.8" gradientTransform="matrix(1, 0, 0, 1, 0, 0)" xlink:href="#未命名的渐变_36"/><linearGradient id="未命名的渐变_36-4" x1="294.38" y1="213.8" x2="399.1" y2="213.8" gradientTransform="matrix(1, 0, 0, 1, 0, 0)" xlink:href="#未命名的渐变_36"/><linearGradient id="未命名的渐变_44" x1="207.68" y1="165.3" x2="221.36" y2="251.44" gradientUnits="userSpaceOnUse"><stop offset="0.05" stop-color="#ebfaff" stop-opacity="0"/><stop offset="0.11" stop-color="#ebfaff" stop-opacity="0.02"/><stop offset="0.16" stop-color="#ebfaff" stop-opacity="0.06"/><stop offset="0.22" stop-color="#ebfaff" stop-opacity="0.14"/><stop offset="0.28" stop-color="#ebfaff" stop-opacity="0.25"/><stop offset="0.34" stop-color="#ebfaff" stop-opacity="0.4"/><stop offset="0.39" stop-color="#ebfaff" stop-opacity="0.57"/><stop offset="0.41" stop-color="#ebfaff" stop-opacity="0.62"/><stop offset="0.62" stop-color="#e4fbfd" stop-opacity="0.63"/><stop offset="0.83" stop-color="#d0fdf9" stop-opacity="0.68"/><stop offset="0.97" stop-color="#bbfff4" stop-opacity="0.72"/></linearGradient><linearGradient id="未命名的渐变_23-7" x1="289.59" y1="201.16" x2="395.8" y2="201.16" gradientTransform="matrix(1, 0, 0, 1, 0, 0)" xlink:href="#未命名的渐变_23"/><linearGradient id="未命名的渐变_289" x1="197.08" y1="285.38" x2="294.38" y2="285.38" gradientUnits="userSpaceOnUse"><stop offset="0" stop-color="#4c83ff"/><stop offset="1" stop-color="#2afadf"/></linearGradient><linearGradient id="未命名的渐变_46" x1="288.04" y1="240.14" x2="351.76" y2="378.04" gradientUnits="userSpaceOnUse"><stop offset="0.01" stop-color="#e6f4ff"/><stop offset="0.26" stop-color="#d4f4ff"/><stop offset="0.54" stop-color="#c2f4ff"/></linearGradient><linearGradient id="未命名的渐变_23-8" x1="233.8" y1="382.81" x2="321.3" y2="382.81" gradientTransform="matrix(1, 0, 0, 1, 0, 0)" xlink:href="#未命名的渐变_23"/><linearGradient id="未命名的渐变_36-5" x1="162.1" y1="355.92" x2="249.6" y2="355.92" gradientTransform="matrix(1.03, 0.01, 0.03, 1.14, 3.29, 31.46)" xlink:href="#未命名的渐变_36"/><linearGradient id="未命名的渐变_23-9" x1="162.19" y1="353.91" x2="249.6" y2="353.91" gradientTransform="matrix(1.03, 0.01, 0.03, 1.14, 3.29, 31.46)" xlink:href="#未命名的渐变_23"/><linearGradient id="未命名的渐变_32-5" x1="344.67" y1="330.86" x2="408.23" y2="330.86" gradientTransform="matrix(0.99, 0, 0, 1, 5.57, 0.5)" xlink:href="#未命名的渐变_32"/><linearGradient id="未命名的渐变_14" x1="360.77" y1="268.66" x2="366.91" y2="274.79" gradientUnits="userSpaceOnUse"><stop offset="0" stop-color="#0041aa"/><stop offset="0.62" stop-color="#1e68f9"/></linearGradient><linearGradient id="未命名的渐变_45" x1="317.34" y1="369" x2="326.68" y2="369" gradientUnits="userSpaceOnUse"><stop offset="0.03" stop-color="#0041aa"/><stop offset="1" stop-color="#1e68f9"/></linearGradient><linearGradient id="未命名的渐变_182-2" x1="252.59" y1="305.28" x2="413.98" y2="305.28" gradientTransform="matrix(1, 0, 0, 1, 0, 0)" xlink:href="#未命名的渐变_182"/><linearGradient id="未命名的渐变_186" x1="4.43" y1="316.61" x2="197.33" y2="312.81" gradientUnits="userSpaceOnUse"><stop offset="0" stop-color="#8dffc8"/><stop offset="0.2" stop-color="#67e7d2"/><stop offset="0.38" stop-color="#4bd6d9"/><stop offset="0.48" stop-color="#41cfdc"/><stop offset="0.59" stop-color="#3fabe2"/><stop offset="0.69" stop-color="#3e8ee6"/><stop offset="0.75" stop-color="#3d83e8"/><stop offset="1" stop-color="#3badea"/></linearGradient><linearGradient id="未命名的渐变_229" x1="52.55" y1="316" x2="193.52" y2="316" gradientUnits="userSpaceOnUse"><stop offset="0" stop-color="#4affc7"/><stop offset="1" stop-color="#3badea"/></linearGradient><linearGradient id="未命名的渐变_186-2" x1="403.43" y1="317.74" x2="569.68" y2="317.74" xlink:href="#未命名的渐变_186"/><linearGradient id="未命名的渐变_229-2" x1="430.87" y1="317.74" x2="578.19" y2="317.74" xlink:href="#未命名的渐变_229"/></defs><title>500</title><g id="图层_2" data-name="图层 2"><g id="图层_1-2" data-name="图层 1"><path class="cls-2" d="M295.9,418.57l130.56,13.66s-32.6-21.51-59.15-34.6c-25.15-12.4-55.69-24.1-55.69-24.1l-15.72,45Z"/><path class="cls-3" d="M0,418.57C0,464.08,146.71,501,327.7,501s327.69-36.89,327.69-82.4-146.71-82.4-327.69-82.4S0,373.06,0,418.57"/><path class="cls-4" d="M453.32,26.64h-2c0-.38.05-.75.05-1.13a15.76,15.76,0,1,0-31.51,0c0,.38,0,.75.05,1.13h-2.31a10.55,10.55,0,0,0,0,21.1h35.74a10.55,10.55,0,1,0,0-21.1Z"/><path class="cls-5" d="M574.66,185.11l-2.45,0c0-.45.06-.9.06-1.36a19,19,0,0,0-38.06.25c0,.46,0,.9.08,1.36H531.5a12.75,12.75,0,0,0,.17,25.49l43.15-.28a12.75,12.75,0,0,0-.16-25.49Z"/><path class="cls-6" d="M177.27,386.49c5.92,6.34,44.23,28.49-22.3,49-44.71,13.78-82.87-30-84-37s7.07,1.69,28-1.69S172.44,381.32,177.27,386.49Z"/><path class="cls-7" d="M582.3,428.93c-11.11,8.65-29.14,19.19-81.32-.48-17.47-6.58-34.54-21-33-26.63s63.24-10.93,81.23-5.95S598.1,416.63,582.3,428.93Z"/><path class="cls-8" d="M610.7,457.66c-.64,1.75-6.4,1.13-12.59-1.09s-11.21-4-10.58-5.78,4.46-3.3,10.65-1.08S611.33,455.91,610.7,457.66Z"/><path class="cls-9" d="M87.29,462.69c-.63,1.75-6.39,1.14-12.58-1.09s-11.21-4-10.58-5.77,4.46-3.31,10.65-1.08S87.93,460.94,87.29,462.69Z"/><g class="cls-10"><path class="cls-11" d="M107.94,87.53a77.33,77.33,0,0,1,3.9-18.89,46.22,46.22,0,0,1,10.07-16.46c1.12-1.18,2.32-2.28,3.53-3.35a24.85,24.85,0,0,1,4.07-2.75,24.36,24.36,0,0,1,9.32-2.92,15.81,15.81,0,0,1,4.94.27,10.12,10.12,0,0,1,4.49,2.23,8.31,8.31,0,0,1,2.4,4.44,10.21,10.21,0,0,1-.34,5,13.94,13.94,0,0,1-6.1,7.66,9.21,9.21,0,0,1-9.64.06,10.67,10.67,0,0,1-3.53-3.51,14.21,14.21,0,0,1-1.88-4.58,19.86,19.86,0,0,1,.27-9.75,34.73,34.73,0,0,1,4-8.88,32.26,32.26,0,0,1,6.24-7.43c4.91-4.27,10.81-7.1,16.79-9.45C150.52,21.71,144.7,24.7,140,29a31.31,31.31,0,0,0-6,7.4,33.8,33.8,0,0,0-3.77,8.74,19.76,19.76,0,0,0-.17,9.36,11.65,11.65,0,0,0,5,7.51,8.11,8.11,0,0,0,1,.53l1.08.39a8.52,8.52,0,0,0,6.59-1,12.94,12.94,0,0,0,5.63-7.14,9.28,9.28,0,0,0,.35-4.52,7.32,7.32,0,0,0-2.1-3.92c-2.27-2-5.61-2.57-8.7-2.29a23.43,23.43,0,0,0-9,2.77A24.8,24.8,0,0,0,126,49.47c-1.21,1-2.4,2.1-3.52,3.24a45.92,45.92,0,0,0-10.16,16.1A76.79,76.79,0,0,0,107.94,87.53Z"/></g><g class="cls-12"><g class="cls-13"><g class="cls-12"><path class="cls-14" d="M158.82,28.18l.35-.11h0l-.35.11h0"/><path class="cls-15" d="M158.8,28.19l.35-.11h0l-.36.11h0"/></g></g></g><path class="cls-16" d="M158.43,19.92h-.21l0,0h0l0,0h0l0,0,0,0,0,0,0,0,0,0,0-.05,0,0-.06-.06-.06-.07h0l-.08-.09,0,0-.05-.07,0-.05-.05-.06a.61.61,0,0,0-.07-.1l0-.05c0-.05-.07-.11-.11-.17l-.15-.24v0c-.05-.08-.09-.16-.13-.24l0,0a1.3,1.3,0,0,0-.08-.17l0,0-.05-.09,0-.05,0-.09,0,0-.06-.13h0l0-.12s0,0,0,0a.36.36,0,0,1,0-.09l0-.05,0-.08,0,0,0-.09s0,0,0,0l0-.12h0s0-.08,0-.13v0l0-.1a.06.06,0,0,1,0,0l0-.1v0c0-.05,0-.09,0-.13v0l0-.12v0l0-.15v0a.11.11,0,0,0,0-.05v-.1s0,0,0,0,0-.06,0-.09v0s0-.07,0-.1v-.13a.28.28,0,0,1,0-.09c0-.21.08-.33.18-.38l-.75.34a.46.46,0,0,0-.18.38V16a.34.34,0,0,0,0,.1v0a.28.28,0,0,0,0,.09v.14a.07.07,0,0,0,0,.05v0h0l0,.15h0v0l0,.12v0h0l0,.14h0v0l0,.1v0l0,.09v0h0s0,.09.05.13h0l0,.12h0v0l0,.09v0l0,.08,0,0v0a.36.36,0,0,1,0,.09v0h0l0,.11v0h0l.06.13h0v0l0,.1v0l0,0,0,.1,0,0h0l.09.16h0a2.6,2.6,0,0,0,.13.24l0,0c.05.08.09.16.15.24s.07.11.1.16l0,.05.07.11,0,0,0,0,0,.05.05.06,0,.05h0l.06.08h0l0,.05v0l.06.06,0,0h0l0,0,0,0h0l0,0,0,0h0l0,0,0,0h0l0,0h0l0,0h.28l.74-.34S158.44,19.92,158.43,19.92Z"/><path class="cls-17" d="M166.55,24.84a.51.51,0,0,0,.27-.46l1.73-5.49a.17.17,0,0,0-.21-.2h0a.16.16,0,0,0-.1.11l-1.79,5.69,0,.07,0,0h0s0,0,0,0h0l-.05,0L158,28.43c-.08,0,0,.09,0,.17h0a.25.25,0,0,0,.34.12C159.85,28,166.3,25,166.55,24.84Z"/><polygon class="cls-18" points="160.66 20.56 161.01 20.45 168.63 18.52 168.28 18.63 160.66 20.56"/><path class="cls-19" d="M168.29,18.71l-1.81,5.77a.31.31,0,0,1-.16.19l-8,3.81c-.35.17-.33,0-.3-.09l2.3-7.65Z"/><path class="cls-20" d="M179.07,16.51l.21-.1-.09,0a16.18,16.18,0,0,0,1.59-.83h0a17.53,17.53,0,0,0,2.77-1.95c.19-.17.31-.34.71-.73l-.06.06h0l-.06,0h0l-.07,0h0c-2.2.34-6.42-7.89-6.36-11.75h0c0-.05,0-.08,0-.21h0c.09-.64.21-1,.69-1.08h0l-.47,0h0a17.74,17.74,0,0,0-5,1.32h0l-.39.17-.22.1h0a26,26,0,0,0-3.85,2.14h0c-.16.1-.42.27-.67.45h0l-.68.49-.69.52-10.38,8c-.49.25-.44,1.38.08,3a13.06,13.06,0,0,0,2.32,4.26c.26.25.58.68,1.06.65l13-2.61h0c.83-.17,1.65-.37,2.38-.57.31-.08.9-.26.86-.25A24.7,24.7,0,0,0,179.07,16.51Zm-7.34,1.92ZM166,7.39ZM171.13,18Zm.7.5Zm.41.12Zm.09,0Zm.07,0Z"/><polygon class="cls-21" points="187.8 3.63 187.8 3.64 187.8 3.64 187.8 3.63"/><path class="cls-22" d="M184.07,13.08h.13l0,0h0l0,0h0l.15-.17.09-.08-.07.06c.16-.16.32-.33.45-.48l.11-.13a5,5,0,0,0,.48-.6l0,0,.46-.64.07-.11c.11-.16.22-.34.33-.53h0c.13-.21.28-.5.39-.72l.11-.23,0-.1L187,9l0-.09h0v0a.69.69,0,0,0,0-.13l0,0,.09-.24h0c.09-.22.16-.44.22-.64a8.75,8.75,0,0,0,.45-3.14,5.79,5.79,0,0,0-.11-1h0v0h0v0h0v0h0v0h0v0h0a1.62,1.62,0,0,0-.22-.29,1,1,0,0,0-.13-.15l0,0-.11-.12-.06-.06a1.14,1.14,0,0,1-.11-.11l-.13-.11-.19-.17,0,0a2.13,2.13,0,0,0-.22-.18,6.79,6.79,0,0,0-.56-.4,5.08,5.08,0,0,0-.43-.27l-.16-.09-.23-.13-.07,0,0,0a4.39,4.39,0,0,0-.44-.21h0A6.57,6.57,0,0,0,184,.82l-.29-.11-.44-.15h0l-.63-.18-.72-.16-.2,0A14.28,14.28,0,0,0,180.19,0h-.94l-.92,0c-.38,0-.63.38-.69,1.08,0,0,0,.07,0,.11h.09v0h0v0h.07v0h0v0h.05v0h0v0h.12v0h.05v0h0v0h.05v0h0v0h0v0h0v0h0v0h0v0h0v0h0v0h0v0h0v0h0v0h0v0h0v0h.05v0h0v0h0v0h0v0h0v0h.05V6h0v0h0v0h0v0h0v0h0v0h0v0h0v0h0v0h0v0h0v0h0v0h0v0h0v0h0v0l0,0h0V7h0v0h0v0h0v0h0v0h0v0h0v0h0v0l0,0h0v0h0v0h0l0,0h0v0h0s0,0,0,0v0h0v.09h0l0,0,0,0h0V8h0l0,0v0h0a.14.14,0,0,1,0,.06l0,.06h0l0,.06,0,.06h0v0l0,0,0,.06h0l.06.11h0s0,0,0,0l.06.11.06.1h0c.1.18.19.35.29.51h0l0,.07.06.09h0s0,0,0,0a.75.75,0,0,0,.07.12h0l0,0,.06.09v0h0l0,0a.41.41,0,0,1,.05.09h0a.61.61,0,0,0,.07.1h0l.07.12.05.08h0l0,.07,0,0h0v0l0,0v0h0l0,.06,0,0,0,0,0,0,0,0h0a.05.05,0,0,0,0,0l0,0,0,0h0l0,0,0,0h0v0h0l0,0,0,0h0l0,0h0l0,0h0v0l0,0,0,0h0l0,0,0,0v0h0v0l0,0v0h0l0,0,0,0h0l0,0v0h0l0,0,0,0h.08v0h0l0,0h0v0l0,0h0l0,0h.08l0,0,0,0h0v0h.11l0,0h.08v0h1.7Z"/><path class="cls-23" d="M149.77,10.39l7.88-3.66a.29.29,0,0,1,.24,0l5.47,1.79L163.3,8l-5.47-1.79a.33.33,0,0,0-.24,0l-7.88,3.67a.29.29,0,0,0-.18.31l.06.5A.29.29,0,0,1,149.77,10.39Z"/><path class="cls-24" d="M163.36,8.5,157,13.3l-7.2-2.36a.25.25,0,0,1-.18-.15.3.3,0,0,1,.15-.41l7.88-3.66a.33.33,0,0,1,.24,0Z"/><polygon class="cls-25" points="165.53 13.85 165.88 14.57 162.07 17.08 161.72 16.36 165.53 13.85"/><path class="cls-26" d="M154.19,20.81h0l7.86-3.7-.36-.72-7.86,3.7-.06,0h0l-.05,0h0l0,0h-.13l.36.72h.27Z"/><path class="cls-27" d="M161.76,16.35h0l-.06,0,.36.72h.2l-.35-.73,0,0h0A.31.31,0,0,1,161.76,16.35Z"/><circle class="cls-28" cx="174.05" cy="9.78" r="4.15"/><path class="cls-29" d="M174.53,13.68a4.48,4.48,0,0,1-4.33-2.38,4.15,4.15,0,0,0,8-1.57A4.3,4.3,0,0,1,174.53,13.68Z"/><path class="cls-30" d="M176.46,10.39a.29.29,0,0,1,0,.24.33.33,0,0,1-.42.19l-1.8-.58L173.62,12a.33.33,0,0,1-.42.19A.29.29,0,0,1,173,12a.26.26,0,0,1,0-.23l.63-1.72-1.8-.59a.35.35,0,0,1-.18-.16.29.29,0,0,1,0-.24.32.32,0,0,1,.41-.19l1.8.59.64-1.72a.35.35,0,0,1,.42-.2.38.38,0,0,1,.19.16.33.33,0,0,1,0,.24l-.64,1.72,1.8.59A.3.3,0,0,1,176.46,10.39Z"/><path class="cls-31" d="M176.42,10.25a.29.29,0,0,1,0,.24.33.33,0,0,1-.41.19l-1.8-.59-.64,1.72a.35.35,0,0,1-.42.2.32.32,0,0,1-.18-.16.29.29,0,0,1,0-.24l.64-1.72-1.8-.59a.29.29,0,0,1-.18-.16.26.26,0,0,1,0-.23.35.35,0,0,1,.42-.2l1.8.59.64-1.72a.33.33,0,0,1,.42-.19.29.29,0,0,1,.18.16.26.26,0,0,1,0,.23l-.64,1.72,1.8.59A.35.35,0,0,1,176.42,10.25Z"/><path class="cls-32" d="M165.72,13.76l-3.81,2.51a1,1,0,0,1-.21.11l-7.86,3.7c-.17.08-.28.1-.27.07s0,0,.09-.08l5-3.31Z"/><path class="cls-33" d="M111.6,85.07h-3.33c0-.62.1-1.23.1-1.85a25.88,25.88,0,0,0-51.76,0c0,.62,0,1.23.09,1.85H52.91a17.33,17.33,0,1,0,0,34.65H111.6a17.33,17.33,0,1,0,0-34.65Z"/><path class="cls-34" d="M600,428.93c-2.08-7.22-5.19-15.11-8.84-15.11s-6.76,7.89-8.84,15.11a9.18,9.18,0,0,0,7.31,11.57v10.13h3.06V440.5A9.18,9.18,0,0,0,600,428.93"/><path class="cls-35" d="M80,428.43c-2.69-9.32-6.7-19.5-11.41-19.5s-8.73,10.18-11.41,19.5a11.84,11.84,0,0,0,9.43,14.93v13.08h4V443.36A11.84,11.84,0,0,0,80,428.43"/><path class="cls-36" d="M316,271.32a.56.56,0,0,0,0-1.12.56.56,0,0,0,0,1.12Z"/><path class="cls-36" d="M252.44,253a.56.56,0,0,0,0-1.12.56.56,0,0,0,0,1.12Z"/><path class="cls-36" d="M273.15,351.45a.56.56,0,0,0,0-1.12.56.56,0,0,0,0,1.12Z"/><path class="cls-36" d="M257.14,280.5a.56.56,0,0,0,0-1.12.56.56,0,0,0,0,1.12Z"/><path class="cls-36" d="M362.25,363.76a.56.56,0,0,0,0-1.12.56.56,0,0,0,0,1.12Z"/><path class="cls-36" d="M372.73,79.3a.56.56,0,0,0,0-1.12.56.56,0,0,0,0,1.12Z"/><path class="cls-36" d="M274.86,48.75a.56.56,0,0,0,0-1.11.56.56,0,0,0,0,1.11Z"/><path class="cls-36" d="M261.83,165.9a.56.56,0,0,0,0-1.12.56.56,0,0,0,0,1.12Z"/><path class="cls-36" d="M122,185.59a.56.56,0,0,0,0-1.11.56.56,0,0,0,0,1.11Z"/><path class="cls-36" d="M347.89,145.89a.56.56,0,0,0,0-1.12.56.56,0,0,0,0,1.12Z"/><path class="cls-36" d="M350.43,70.18a.56.56,0,0,0,0-1.12.56.56,0,0,0,0,1.12Z"/><path class="cls-36" d="M406.17,141.47a.56.56,0,0,0,0-1.12.56.56,0,0,0,0,1.12Z"/><path class="cls-36" d="M487.62,179.24a.56.56,0,0,0,0-1.12.56.56,0,0,0,0,1.12Z"/><path class="cls-36" d="M522.21,399.9a.56.56,0,0,0,0-1.12.56.56,0,0,0,0,1.12Z"/><path class="cls-36" d="M65.85,188.43a.56.56,0,0,0,0-1.12.56.56,0,0,0,0,1.12Z"/><path class="cls-36" d="M183.07,129.12a.56.56,0,0,0,0-1.12.56.56,0,0,0,0,1.12Z"/><path class="cls-36" d="M322.56,170.51a.56.56,0,0,0,0-1.12.56.56,0,0,0,0,1.12Z"/><path class="cls-36" d="M224.6,339.89a1,1,0,0,0,0-1.9,1,1,0,0,0,0,1.9Z"/><g class="cls-37"><path class="cls-36" d="M248.65,227.42a1.18,1.18,0,0,0,0-2.35,1.18,1.18,0,0,0,0,2.35Z"/></g><path class="cls-36" d="M267.61,336.2a1.18,1.18,0,0,0,0-2.35,1.18,1.18,0,0,0,0,2.35Z"/><g class="cls-38"><path class="cls-36" d="M350.79,332a1.18,1.18,0,0,0,0-2.36,1.18,1.18,0,0,0,0,2.36Z"/></g><path class="cls-36" d="M356.93,83.55a1.18,1.18,0,0,0,0-2.35,1.18,1.18,0,0,0,0,2.35Z"/><path class="cls-36" d="M285.73,98.93a1.29,1.29,0,0,0,0-2.58,1.29,1.29,0,0,0,0,2.58Z"/><path class="cls-36" d="M397,209.6a1.57,1.57,0,0,0,0-3.13,1.57,1.57,0,0,0,0,3.13Z"/><path class="cls-36" d="M369.77,340a1.85,1.85,0,0,0,0-3.7,1.85,1.85,0,0,0,0,3.7Z"/><g class="cls-37"><path class="cls-36" d="M231.75,247.06c2.59,0,2.6-4,0-4s-2.6,4,0,4Z"/></g><g class="cls-37"><path class="cls-36" d="M257.05,112.82c2.59,0,2.6-4,0-4s-2.6,4,0,4Z"/></g><g class="cls-38"><path class="cls-36" d="M421.17,115.77c2.59,0,2.6-4,0-4s-2.6,4,0,4Z"/></g><path class="cls-36" d="M337.72,369.88a1.62,1.62,0,0,0,0-3.24,1.62,1.62,0,0,0,0,3.24Z"/><path class="cls-36" d="M192.86,289.46a.56.56,0,0,0,0-1.12.56.56,0,0,0,0,1.12Z"/><path class="cls-36" d="M129.26,271.16a.56.56,0,0,0,0-1.12.56.56,0,0,0,0,1.12Z"/><path class="cls-36" d="M9.63,364.32a.56.56,0,0,0,0-1.12.56.56,0,0,0,0,1.12Z"/><path class="cls-36" d="M134,298.64a.56.56,0,0,0,0-1.12.56.56,0,0,0,0,1.12Z"/><path class="cls-36" d="M463.56,444.55a.56.56,0,0,0,0-1.12.56.56,0,0,0,0,1.12Z"/><path class="cls-36" d="M177.27,461.44a.56.56,0,0,0,0-1.12.56.56,0,0,0,0,1.12Z"/><path class="cls-36" d="M503.86,219.35a.56.56,0,0,0,0-1.12.56.56,0,0,0,0,1.12Z"/><path class="cls-36" d="M506.66,359.65a.56.56,0,0,0,0-1.12.56.56,0,0,0,0,1.12Z"/><path class="cls-36" d="M506.66,250.38a.56.56,0,0,0,0-1.12.56.56,0,0,0,0,1.12Z"/><path class="cls-36" d="M155,452.32a.56.56,0,0,0,0-1.12.56.56,0,0,0,0,1.12Z"/><path class="cls-36" d="M351.7,486.82a.56.56,0,0,0,0-1.12.56.56,0,0,0,0,1.12Z"/><path class="cls-36" d="M567.39,364.26a.56.56,0,0,0,0-1.11.56.56,0,0,0,0,1.11Z"/><path class="cls-36" d="M421.17,341.15a1,1,0,0,0,0-1.9,1,1,0,0,0,0,1.9Z"/><g class="cls-37"><path class="cls-36" d="M65.85,405.74a1.18,1.18,0,0,0,0-2.35,1.18,1.18,0,0,0,0,2.35Z"/></g><path class="cls-36" d="M122,400.14a1.18,1.18,0,0,0,0-2.36,1.18,1.18,0,0,0,0,2.36Z"/><g class="cls-38"><path class="cls-36" d="M369.77,189.05a1.18,1.18,0,0,0,0-2.35,1.18,1.18,0,0,0,0,2.35Z"/></g><path class="cls-36" d="M51.28,332.15a1.29,1.29,0,0,0,0-2.58,1.29,1.29,0,0,0,0,2.58Z"/><path class="cls-36" d="M567.39,434.29a1.85,1.85,0,0,0,0-3.69,1.85,1.85,0,0,0,0,3.69Z"/><g class="cls-37"><path class="cls-36" d="M615.7,417.65c2.59,0,2.6-4,0-4s-2.6,4,0,4Z"/></g><path class="cls-39" d="M399.1,445.13C359.36,452,283.5,431,257.62,419.38c-26.23-11.81-27.6-12.87-18.77-30.3s74.42-45.38,130.92-24.47c15.82,5.85,51.8,20.53,58.5,29.11C441.91,411.19,418,441.89,399.1,445.13Z"/><path class="cls-40" d="M252.59,422.09l11.06,11.29s6.61,7.46,5.73,8.62,10.86,11.65,10.86,11.65,8.73,9.4-2.69,14.31-52,8.36-55.25,4.59-37.24-50-37.24-50Z"/><path class="cls-41" d="M305,425.76l-5.65-.59-15.6-8.5-7.37,2.58-2.51-2.84-1.2-7.72-6.39,5.4-3.72-1.56-.14-2.28-7.22,1.32-1.55-2.1-3.88-8.89L238.05,404l-4.25-1.32,27.64-60.81,65.24,23.34Z"/><path class="cls-42" d="M395.8,155.56l-101.42,93L360.13,272l39-110.53Z"/><path class="cls-43" d="M210.42,198.92c5.16,3.08,7.9,4.93,8.78,9.79,1,5.73-1.44,9.59-4.57,14.48-3.41,5.32-7.64,11.94-5.93,21.35,1.54,8.44,5.13,21.65,5.28,22.21a5,5,0,0,0,8.36,2.2,5,5,0,0,0,1.27-4.83c0-.13-3.63-13.35-5.09-21.37-1-5.55,1.43-9.35,4.52-14.17,3.44-5.38,7.72-12.07,6-21.66s-8.24-13.44-13.47-16.57-9.12-5.46-10.42-12.58l-1.64-9q-4.61,2.94-9,6.15l.85,4.66c2.11,11.57,9.32,15.89,15.11,19.36"/><path class="cls-44" d="M330.57,132.22l-41,114.55,65.23,23.34,41-114.55Z"/><path class="cls-45" d="M228.78,243.8c-9.88-3.54-22.73,7.11-28.69,23.79s-2.79,33.05,7.08,36.58h0l65.61,23.47,21.6-60.38Z"/><path class="cls-46" d="M257.77,288.23c-2.84,7.95-7.68,29.63-7.68,29.63s-10.91-2.23-14.07-3.37c-6.05-2.16-6.12-17.43-.15-34.1s15.7-28.44,21.75-26.28c2.88,1,14.52,5.94,14.52,5.94s-11.25,19.44-14.37,28.18"/><path class="cls-47" d="M289.93,246.89c-15.33-5.49-35.27,11-44.52,36.91s-4.34,51.29,11,56.78l102.72,36.75,33.53-93.69Z"/><path class="cls-48" d="M299.34,425.15l-15.29-2.6L278.58,415l-4.71,1.44-1.77-11.32-9.54,7.44-.36-5.79-8.55,2.73-4.93-11.29-14.92,4.48,22.26-62.2L321.3,363.8Z"/><path class="cls-49" d="M229.74,408.36l-48.89,14v3.29l39.93,45.59,50.51-17.36V450.6L261.76,446l-1.2-4.86-1-4-2.53-.69-3.82-1,1.75-7.66-.08-5.17-5.82,4.07-3.37.45.64-9.17-2.81,2.42L240,419.29l.82-5.46-.47-7.37L235,409.05Z"/><path class="cls-50" d="M229.74,405.07l-48.89,17.3L220.78,468l50.51-17.36-9.53-7.85-2.18-8.84L252.64,432l2.26-9.38-9.19,1.23.64-5.88-7.66-2.39,1.63-9.14Z"/><path class="cls-51" d="M404.36,341.43c-8.74,26.15-31.21,41.38-42.82,37.05-15-5.57-19.88-31.51-11.14-57.65s27.93-42.74,42.83-37.06,19.89,31.51,11.13,57.67"/><polygon class="cls-52" points="363.16 263.65 358.3 260.39 354.82 270.11 360.2 272.04 363.16 263.65"/><polygon class="cls-53" points="326.68 365.72 320.81 363.61 317.34 373.33 323.74 374.39 326.68 365.72"/><path class="cls-54" d="M358.3,260.39l-65.24-23.34-3.47,9.71,65.23,23.35Zm-37,103.41-65.24-23.35-3.47,9.72,65.23,23.34Zm89.88-40.42a25.51,25.51,0,0,1-12.52,35c-9.49,4.13-19.29,7.42-23.71,5.84-9.88-3.54-13.05-19.92-7.08-36.59s18.81-27.33,28.69-23.79c4.41,1.58,9.9,10.34,14.62,19.55m-83.72-1.61-39.16-14,5.46-15.27,39.16,14Zm-48.88-17.49-15.27-5.46,5.47-15.27L284.05,289Z"/><path class="cls-55" d="M97.33,359.81c2.36,14.1,5.5,21.49,20.43,22.16,18.86-.67,30.59-12.19,30.64-38.28,0-20.2-11.4-30.87-29.46-32.22-12.58.67-60.5,6.39-65.21,19.13l-6.38-2.75L53.2,223.92l133.7,1.94L181.4,251H93l-2.35,47.33q15.3-13.06,38.89-13.09c41.63,1.35,58.47,20.79,58.47,60.4,0,36.87-24.3,57.78-71.44,60.46-44.78-.68-68-18.84-69.53-49.06Z"/><path class="cls-56" d="M97.33,359.81Q100.87,381,123.26,382c18.86-.67,30.5-12.55,30.64-38.28.11-20.2-11.4-30.87-29.46-32.22q-18.87,1-25.93,20.14l-44.78-1,5.89-104.74H186.9V251H98.51l-2.36,47.33q15.31-13.06,38.89-13.09c41.64,1.35,58.48,20.79,58.48,60.4,0,35.25-24.3,57.78-71.44,60.46q-67.17-1-69.53-46.33Z"/><path class="cls-57" d="M496.1,409.89q-69.56-1-71.89-90.64,2.35-92.64,71.89-93.66,73.06,1,75.43,93.66Q570.35,408.91,496.1,409.89Zm1.18-158.11q-27.12,1-27.1,67.47,0,65.47,27.1,66.47,27.11-1,27.11-66.47Q524.39,252.79,497.28,251.78Z"/><path class="cls-58" d="M502.76,409.89q-69.56-1-71.89-90.64,2.36-92.64,71.89-93.66,73.07,1,75.43,93.66Q577,408.91,502.76,409.89Zm1.18-158.11q-27.12,1-27.11,67.47,0,65.47,27.11,66.47,27.1-1,27.11-66.47Q531.05,252.79,503.94,251.78Z"/></g></g></svg>